<!--SOURCE:https://thenounproject.com/_next/static/media/row2-8-noun-tetris-icon.8a03ed9a.svg-->
<svg width="70" height="70" fill="none" xmlns="http://www.w3.org/2000/svg">
<path fill="#f7df1e" d="M62.4878 12.0568C62.4864 12.0542 62.4864 12.0513 62.4851 12.0479C62.4825 12.0397 62.4783 12.0335 62.4757 12.0255C62.473 12.016 62.4675 12.0078 62.4636 11.9989C62.4502 11.9627 62.4385 11.9265 62.419 11.8932C62.4082 11.8741 62.3926 11.8583 62.3805 11.8406C62.3684 11.8248 62.3583 11.8092 62.3447 11.7941C62.3339 11.7806 62.3252 11.7655 62.3115 11.7533C62.2933 11.7342 62.2698 11.7198 62.248 11.7029C62.2258 11.6851 62.2063 11.664 62.1806 11.6489C62.1766 11.6469 62.1725 11.6463 62.1698 11.644C62.1659 11.642 62.163 11.6385 62.159 11.6365L48.4009 4.04751C48.1989 3.93627 47.9553 3.93627 47.7535 4.04751L20.2372 19.2243C20.0205 19.3438 19.8854 19.5736 19.8854 19.8232V34.5953L6.48215 41.9887C6.2655 42.1089 6.13037 42.338 6.13037 42.5876V57.7621C6.13037 58.0117 6.26528 58.2411 6.48215 58.361L20.2381 65.9522C20.2704 65.97 20.3049 65.9795 20.3381 65.9917C20.3556 65.9986 20.3719 66.0075 20.3901 66.0122C20.4462 66.0273 20.5035 66.0353 20.5609 66.0353C20.6182 66.0353 20.6756 66.0271 20.7316 66.0122C20.7329 66.0122 20.7349 66.0122 20.7364 66.0115C20.7547 66.0066 20.7716 65.9964 20.7892 65.9897C20.8208 65.9782 20.854 65.9693 20.8843 65.9522L48.4012 50.7731C48.6172 50.653 48.7521 50.4239 48.7521 50.1743L48.7519 35.4044L62.1608 28.011C62.3768 27.8915 62.5117 27.6617 62.5117 27.4122V12.2353C62.5119 12.1738 62.5038 12.1137 62.4882 12.0557L62.4878 12.0568ZM47.4015 34.5947L34.9956 41.4379V27.8174L47.4015 20.9748V34.5947ZM21.2357 50.5798L33.6456 43.7366V57.3582L21.2357 64.2032V50.5798ZM34.9956 56.6136V42.9931L47.4015 36.1505V49.771L34.9956 56.6136ZM48.7515 33.8506V20.2296L61.1614 13.3852V27.0074L48.7515 33.8506Z"/>
</svg>
